# xmcd
#
# Track frame offsets:
#	150
#	16914
#	37896
#	66540
#	83004
#	97513
#	112039
#	124243
#	150919
#	169131
#	189086
#	202138
#	212968
#	225438
#	237647
#	254791
#	278099
#
# Disc length: 3843 seconds
#
# Revision: 1
# Processed by: cddbd v1.4PL0 Copyright (c) Steve Scherf et al.
# Submitted via: audiograbber 1.81.02
#
DISCID=e50f0111
DTITLE=Dr. John - HooDoo: The Collection
DYEAR=1900
DGENRE=
TTITLE0=Time Had Come
TTITLE1=Woman
TTITLE2=Shining as Hard as I Can
TTITLE3=Which Way
TTITLE4=Little Closer to My Home
TTITLE5=Make Your Own
TTITLE6=You Said It
TTITLE7=Bring Your Own Along
TTITLE8=Somebody Tryin' to Hoodoo Me
TTITLE9=Don't Want No Monkey in My Business
TTITLE10=I Pulled the Cover off You Two Lovers
TTITLE11=Ear Is on Strike
TTITLE12=Go Ahead On
TTITLE13=Chicky Wow Wow
TTITLE14=I Got Lonesome-Itis
TTITLE15=Dog House Blues
TTITLE16=Flight #5
EXTD=
EXTT0=
EXTT1=
EXTT2=
EXTT3=
EXTT4=
EXTT5=
EXTT6=
EXTT7=
EXTT8=
EXTT9=
EXTT10=
EXTT11=
EXTT12=
EXTT13=
EXTT14=
EXTT15=
EXTT16=
PLAYORDER=
